{
  "accessors": [
    {
      "bufferView": 2,
      "componentType": 5126,
      "count": 2024,
      "max": [
        0.73165100812911987,
        0.38943400979042053,
        1.7437499761581421
      ],
      "min": [
        -0.73165100812911987,
        -0.38943400979042053,
        1.4901200273698123e-08
      ],
      "type": "VEC3"
    },
    {
      "bufferView": 2,
      "byteOffset": 24288,
      "componentType": 5126,
      "count": 2024,
      "max": [
        0.99990576505661011,
        0.99817037582397461,
        0.99963414669036865
      ],
      "min": [
        -1,
        -0.99891650676727295,
        -1
      ],
      "type": "VEC3"
    },
    {
      "bufferView": 3,
      "componentType": 5126,
      "count": 2024,
      "max": [
        0.99934470653533936,
        0.99983757734298706,
        0.99846380949020386,
        1
      ],
      "min": [
        -0.99999940395355225,
        -0.9997485876083374,
        -0.99938154220581055,
        -1
      ],
      "type": "VEC4"
    },
    {
      "bufferView": 1,
      "componentType": 5126,
      "count": 2024,
      "max": [
        0.99830198287963867,
        0
      ],
      "min": [
        0,
        -0.99808597564697266
      ],
      "type": "VEC2"
    },
    {
      "bufferView": 0,
      "componentType": 5125,
      "count": 4599,
      "max": [
        2023
      ],
      "min": [
        0
      ],
      "type": "SCALAR"
    },
    {
      "bufferView": 2,
      "byteOffset": 48576,
      "componentType": 5126,
      "count": 292,
      "max": [
        0.47765201330184937,
        -0.032222200185060501,
        0.90924602746963501
      ],
      "min": [
        0.075473397970199585,
        -0.37546399235725403,
        0.16387799382209778
      ],
      "type": "VEC3"
    },
    {
      "bufferView": 2,
      "byteOffset": 52080,
      "componentType": 5126,
      "count": 292,
      "max": [
        0.99312788248062134,
        0.99284511804580688,
        0.94624209403991699
      ],
      "min": [
        -0.99312788248062134,
        -0.99273699522018433,
        -0.9152907133102417
      ],
      "type": "VEC3"
    },
    {
      "bufferView": 3,
      "byteOffset": 32384,
      "componentType": 5126,
      "count": 292,
      "max": [
        0.94280338287353516,
        0.99772197008132935,
        0.94345903396606445,
        1
      ],
      "min": [
        -0.99930673837661743,
        -0.95660227537155151,
        -0.99862378835678101,
        -1
      ],
      "type": "VEC4"
    },
    {
      "bufferView": 1,
      "byteOffset": 16192,
      "componentType": 5126,
      "count": 292,
      "max": [
        2.9980399608612061,
        -0.0034700001124292612
      ],
      "min": [
        1.0019600391387939,
        -0.99603301286697388
      ],
      "type": "VEC2"
    },
    {
      "bufferView": 0,
      "byteOffset": 18396,
      "componentType": 5125,
      "count": 432,
      "max": [
        291
      ],
      "min": [
        0
      ],
      "type": "SCALAR"
    }
  ],
  "asset": {
    "extras": {
      "author": "Senpai-3689 (https://sketchfab.com/Senpai3689)",
      "license": "CC-BY-4.0 (http://creativecommons.org/licenses/by/4.0/)",
      "source": "https://sketchfab.com/models/66b877fa049940b0bbe68c91dc2e4d26",
      "title": "Sephiroth w/ Masamune (FF:VII) HD"
    },
    "generator": "Sketchfab-3.18.5",
    "version": "2.0"
  },
  "bufferViews": [
    {
      "buffer": 0,
      "byteLength": 20124,
      "byteOffset": 0,
      "name": "floatBufferViews",
      "target": 34963
    },
    {
      "buffer": 0,
      "byteLength": 18528,
      "byteOffset": 20124,
      "byteStride": 8,
      "name": "floatBufferViews",
      "target": 34962
    },
    {
      "buffer": 0,
      "byteLength": 55584,
      "byteOffset": 38652,
      "byteStride": 12,
      "name": "floatBufferViews",
      "target": 34962
    },
    {
      "buffer": 0,
      "byteLength": 37056,
      "byteOffset": 94236,
      "byteStride": 16,
      "name": "floatBufferViews",
      "target": 34962
    }
  ],
  "buffers": [
    {
      "byteLength": 131292,
      "uri": "scene.bin"
    }
  ],
  "images": [
    {
      "uri": "textures/Material_408_baseColor.png"
    },
    {
      "uri": "textures/Material_409_baseColor.png"
    }
  ],
  "materials": [
    {
      "doubleSided": true,
      "emissiveFactor": [
        0,
        0,
        0
      ],
      "name": "Material_408",
      "pbrMetallicRoughness": {
        "baseColorFactor": [
          1,
          1,
          1,
          1
        ],
        "baseColorTexture": {
          "index": 0,
          "texCoord": 0
        },
        "metallicFactor": 0,
        "roughnessFactor": 0.59999999999999998
      }
    },
    {
      "doubleSided": true,
      "emissiveFactor": [
        0,
        0,
        0
      ],
      "name": "Material_409",
      "pbrMetallicRoughness": {
        "baseColorFactor": [
          1,
          1,
          1,
          1
        ],
        "baseColorTexture": {
          "index": 1,
          "texCoord": 0
        },
        "metallicFactor": 0,
        "roughnessFactor": 0.59999999999999998
      }
    }
  ],
  "meshes": [
    {
      "primitives": [
        {
          "attributes": {
            "NORMAL": 1,
            "POSITION": 0,
            "TANGENT": 2,
            "TEXCOORD_0": 3
          },
          "indices": 4,
          "material": 0,
          "mode": 4
        }
      ]
    },
    {
      "primitives": [
        {
          "attributes": {
            "NORMAL": 6,
            "POSITION": 5,
            "TANGENT": 7,
            "TEXCOORD_0": 8
          },
          "indices": 9,
          "material": 1,
          "mode": 4
        }
      ]
    }
  ],
  "nodes": [
    {
      "children": [
        1
      ],
      "name": "RootNode (gltf orientation matrix)",
      "rotation": [
        -0.70710678118654746,
        -0,
        -0,
        0.70710678118654757
      ]
    },
    {
      "children": [
        2
      ],
      "name": "RootNode (model correction matrix)"
    },
    {
      "children": [
        3,
        4
      ],
      "name": "Sephirothdiss.obj.cleaner.materialmerger.gles"
    },
    {
      "mesh": 0,
      "name": ""
    },
    {
      "mesh": 1,
      "name": ""
    }
  ],
  "samplers": [
    {
      "magFilter": 9729,
      "minFilter": 9987,
      "wrapS": 10497,
      "wrapT": 10497
    }
  ],
  "scene": 0,
  "scenes": [
    {
      "name": "OSG_Scene",
      "nodes": [
        0
      ]
    }
  ],
  "textures": [
    {
      "sampler": 0,
      "source": 0
    },
    {
      "sampler": 0,
      "source": 1
    }
  ]
}

